<?xml version="1.0" encoding="UTF-8"?>
<!-- Ícono PWA: fondo marrón + logo blanco, cuadrado -->
<svg xmlns="http://www.w3.org/2000/svg" viewBox="0 0 512 512" width="512" height="512">
  <!-- Fondo marrón oscuro -->
  <rect width="512" height="512" fill="#4A3728" rx="80"/>

  <!-- Logo Cuero Viejo centrado y escalado al ícono -->
  <!-- viewBox original del logo: 30 25 150 170, lo mapeamos a 512x512 con margen -->
  <g transform="translate(256,256) scale(2.8) translate(-105,-110)">
    <g transform="matrix(3.7655248,0,0,3.7655248,-267.4346,-141.05942)">
      <g transform="matrix(0.57355614,0,0,0.57355614,82.739104,23.623129)" style="fill:#F5EDE0">
        <g transform="matrix(0.26458333,0,0,0.26458333,-115.27325,13.54461)" style="fill:#F5EDE0">
          <path style="fill:#F5EDE0" d="m 419.79896,371.95092 c -2.1059,-2.10592 -1.04072,-210.67316 1.12828,-220.90595 6.35574,-29.98573 30.71635,-54.653456 61.03223,-61.801718 13.49151,-3.181198 116.34056,-3.138427 128.59511,0.05353 24.76498,6.450464 44.50621,26.052698 51.36244,51.000878 1.57887,5.74522 2.20039,31.19545 2.9295,119.95903 l 0.92545,112.66661 H 543.27163 c -67.37521,0 -122.93791,-0.43768 -123.47267,-0.97231 z M 661.87282,258.47483 C 660.94981,153.73205 660.6775,144.84329 658.14155,136.69545 651.2699,114.61663 633.86801,98.14669 610.97115,92.051195 599.34698,88.956659 492.91934,89.088566 480.75332,92.212628 c -29.80897,7.654413 -51.05472,29.936032 -57.39103,60.189162 -1.09998,5.25195 -1.6187,41.59153 -1.6187,113.3959 v 105.66712 h 120.56239 120.56244 z m -106.09066,90.48149 c 0,0 -8.36793,-2.67826 -6.8944,-8.37089 0.42694,-1.64941 0.77114,-2.15732 1.1325,-2.5973 0.33406,-0.40675 0.41277,-0.46742 0.82321,-0.67322 0.68298,-0.34246 1.13712,-0.5 2.16227,0.34589 0.81052,0.66879 2.112,2.1706 4.3754,4.4274 2.65125,2.64352 6.27076,3.93097 7.71426,3.93097 6.02069,0 6.87041,-2.924 6.87041,-28.113 v -23.74019 h 5.10462 5.10463 v 22.02123 c 0,25.11561 -1.41335,30.20414 -9.44849,34.01713 -6.2726,2.97646 -16.94441,-1.24802 -16.94441,-1.24802 z m 45.76992,1.17079 c -7.07413,-3.48794 -12.08466,-14.59631 -12.08466,-26.7916 0,-32.97099 32.81843,-41.11917 41.78554,-10.37451 7.22561,24.77374 -10.31582,46.72412 -29.70088,37.16611 z m 15.87428,-5.98604 c 8.24119,-7.0598 6.32471,-41.30674 -2.5011,-44.69358 -9.55539,-3.66673 -14.38878,2.78587 -14.97527,19.99204 -0.79952,23.45481 6.64637,33.9789 17.47637,24.70154 z M 454.09375,324.4294 c -7.39641,-32.05432 -7.3269,-30.56771 -1.40237,-29.99105 l 4.69538,0.45696 5.09718,22.24166 c 2.80346,12.2329 5.50556,22.24162 6.00457,22.24162 1.07365,0 5.20987,-18.09812 7.66644,-33.54474 1.66214,-10.45109 1.92434,-10.95964 5.88353,-11.41287 3.42694,-0.39246 4.00905,-0.0117 3.3646,2.18774 -1.46872,5.01681 -14.07158,53.23374 -14.07158,53.83602 0,0.33073 -2.49659,0.6016 -5.54799,0.6016 h -5.54798 z m 39.11477,-1.8231 v -28.44013 h 5.10463 5.10463 v 28.44013 28.4401 h -5.10463 -5.10463 z m 18.96007,0 v -28.44013 h 14.40237 14.40237 l 0.92165,4.60834 c 1.19903,5.99492 0.26074,6.71284 -4.83773,3.70118 C 534.75223,301.11404 530.50643,300 527.6221,300 h -5.2442 v 9.66646 9.66646 l 5.70635,-0.9125 c 3.13848,-0.50163 6.74825,-1.31227 8.02159,-1.80088 1.85661,-0.71249 2.31517,0.17639 2.31517,4.48813 0,5.8763 0.59936,5.75095 -12.76159,2.66868 -3.19553,-0.73721 -3.28152,-0.44705 -3.28152,11.06879 v 11.82585 h 5.05512 c 2.78038,0 7.36628,-1.10206 10.19097,-2.44907 6.01384,-2.86784 6.6344,-2.55617 5.60288,2.81372 l -0.77045,4.01076 h -15.14395 -15.14388 z m -59.06793,-31.94412 c -18.45133,-8.14461 -19.24654,-44.19954 -1.15148,-52.20385 13.82982,-6.11758 30.84904,2.88712 25.24567,13.35716 -1.86819,3.4908 -5.86335,3.97583 -5.86335,0.71193 0,-7.95202 -8.28657,-14.23677 -14.43373,-10.94687 -12.42792,6.65117 -10.26808,42.30739 2.76921,45.71669 3.76371,0.98424 10.9962,-4.85441 12.26232,-9.89917 1.1662,-4.64638 4.90857,-4.73387 6.06113,-0.14166 2.44466,9.7402 -13.60743,18.38588 -24.88977,13.40577 z m 40.6739,0.61613 c -8.09427,-3.27047 -9.31685,-7.41485 -9.31685,-31.58284 v -22.40956 h 4.27277 4.27271 l 0.46745,22.73837 c 0.4509,21.94531 0.58882,22.83671 3.95211,25.55699 3.44683,2.78786 7.86083,2.62925 11.09982,-0.39855 0.81384,-0.76087 1.664,-11.64735 1.92345,-24.63002 l 0.46525,-23.26657 h 5.00426 5.00431 l -0.0104,19.32471 c -0.0117,23.36805 -1.41203,29.39316 -7.73835,33.25051 -4.83884,2.95047 -13.95517,3.61649 -19.39837,1.41717 z m 122.45027,-1.47907 c -6.42074,-4.23535 -9.76921,-12.00175 -10.37904,-24.07318 -1.83175,-36.25739 37.8234,-40.60716 41.51626,-4.55395 2.29424,22.39798 -15.61668,38.86494 -31.13722,28.62713 z m 14.29901,-3.04281 c 9.5092,-5.08911 9.71061,-38.47146 0.26956,-44.65755 -8.64068,-5.6616 -15.02025,3.29052 -15.05194,21.12168 -0.0332,19.26599 5.7004,28.39648 14.7825,23.53587 z M 528.21176,264.3186 v -27.03269 h 14.58464 14.58474 v 4.37539 c 0,4.91331 -0.64368,5.15468 -5.83392,2.18773 -2.00536,-1.1464 -5.77917,-2.10763 -8.38616,-2.13601 l -4.74005,-0.0496 v 9.64237 9.64236 l 5.20821,-0.97703 c 2.86454,-0.53747 6.14608,-1.33703 7.29237,-1.77685 1.56747,-0.60151 2.08415,0.49555 2.08415,4.42479 0,5.00561 -0.15648,5.165 -3.74114,3.80222 -9.55794,-3.63393 -10.84359,-2.50573 -10.84359,9.51613 v 10.93849 h 5.55514 c 3.05533,0 6.82912,-0.96356 8.38619,-2.14131 4.48654,-3.39344 6.73055,-2.75136 6.20952,1.77673 l -0.46139,4.01076 -14.94931,0.41563 -14.9493,0.41562 z m 37.92019,-0.0496 v -26.98165 h 12.27764 c 6.75277,0 13.34009,0.40735 14.63864,0.90594 6.35785,2.43975 8.83624,17.92139 3.85393,24.07428 -2.39912,2.96277 -2.52111,3.92191 -0.90169,7.08929 1.03008,2.01459 2.35479,6.61632 2.9439,10.22602 0.58905,3.60976 1.67426,7.71166 2.41148,9.11543 1.15735,2.20384 0.63148,2.55231 -3.85169,2.55231 -5.85073,0 -8.03674,-3.39784 -8.03674,-12.49189 0,-5.98087 -4.25121,-10.84356 -9.48002,-10.84356 -3.58544,0 -3.6462,0.19459 -3.6462,11.66777 v 11.66768 h -5.10461 -5.10464 z m 22.75249,-5.95893 c 3.83668,-9.18255 -0.20616,-16.64733 -9.01633,-16.64733 -3.4167,0 -3.52691,0.34176 -3.52691,10.93854 v 10.93849 h 5.17907 c 4.56398,0 5.4386,-0.62114 7.36417,-5.2297 z M 447.30153,230.35966 c -2.22725,-5.64757 -3.28446,-16.65145 -1.65933,-17.27052 0.8935,-0.34066 13.38576,-2.0904 27.76051,-3.88884 14.37473,-1.79851 26.36436,-3.96219 26.64362,-4.80828 0.33239,-1.00712 -9.09831,-2.08388 -27.30951,-3.11823 -15.2995,-0.86894 -28.18919,-1.95184 -28.64374,-2.4064 -1.82436,-1.82435 1.23432,-20.10556 3.51003,-20.97881 1.24948,-0.47948 13.99072,2.12178 28.31397,5.78057 32.58333,8.3232 34.17579,6.45216 5.25909,-6.17908 -29.6437,-12.9488 -30.26323,-13.26227 -30.26323,-15.31324 0,-4.22489 9.38918,-18.23139 12.2213,-18.23139 0.99735,0 3.08568,1.1834 4.64071,2.62978 2.47805,2.30492 15.8317,11.79063 30.61185,21.74497 2.63522,1.77482 5.21217,3.90784 5.72647,4.74003 1.23444,1.99728 5.13842,1.94894 5.13842,-0.0635 0,-0.86718 -8.53209,-9.90445 -18.96013,-20.0828 -10.42802,-10.17834 -18.92903,-19.47757 -18.89106,-20.66492 0.0849,-2.66639 15.36571,-15.10399 17.17933,-13.98313 0.72265,0.44668 8.00162,10.67333 16.17547,22.72597 20.16671,29.73663 23.0132,29.43009 8.74882,-0.94226 -15.68928,-33.40618 -15.65026,-30.08536 -0.41013,-34.87906 9.68155,-3.04524 8.76877,-4.08329 13.14055,14.94422 7.06088,30.73157 8.55958,35.99585 10.42418,36.61511 1.51512,0.50323 1.65795,-3.1873 0.72924,-18.84082 -0.63519,-10.70671 -1.15496,-23.40454 -1.15496,-28.21749 v -8.7508 l 10.59502,-0.42892 c 13.53582,-0.547966 13.21827,-1.637904 8.52508,29.25901 -4.4465,29.27278 -4.30506,27.32524 -1.98305,27.30534 1.0705,-0.009 5.1343,-10.31641 9.84461,-24.96973 8.90207,-27.69314 8.4914,-27.16002 18.41766,-23.91048 13.26447,4.34237 13.17571,2.59324 1.22236,24.10187 -2.89766,5.21402 -7.51759,13.52456 -10.26654,18.46783 -4.83051,8.68647 -6.22747,13.61846 -3.85745,13.61846 0.62733,0 5.71373,-5.99301 11.30318,-13.3178 25.2612,-33.10444 23.49246,-31.86643 32.46507,-22.72409 7.6102,7.75423 7.64676,7.50775 -2.42487,16.35258 -28.7489,25.2471 -33.31024,29.8986 -29.31903,29.8986 1.4527,0 25.15961,-14.41213 28.70447,-17.45035 0.96884,-0.83037 2.16319,-1.50975 2.65417,-1.50975 0.49115,0 3.75434,-1.96893 7.25201,-4.37539 8.44802,-5.81236 8.76052,-5.71763 13.7506,4.16762 4.1139,8.14957 4.05724,11.87553 -0.1808,11.87553 -0.63833,0 -6.13368,2.29707 -12.21184,5.10463 -6.07811,2.80756 -11.31497,5.10464 -11.63738,5.10464 -0.32249,0 -4.88509,1.96893 -10.13926,4.37539 -5.25423,2.40648 -10.19299,4.37541 -10.97502,4.37541 -0.7821,0 -1.42198,1.0287 -1.42198,2.28599 0,1.50016 0.87737,2.01947 2.55233,1.51068 1.40377,-0.42645 8.13094,-2.14411 14.9493,-3.81708 6.81837,-1.67297 17.09856,-4.32172 22.84498,-5.88608 16.05953,-4.37196 16.47303,-4.09168 16.51376,11.19344 0.022,9.12775 1.09056,8.78836 -32.06005,10.20562 -34.7985,1.48772 -31.56977,3.8673 11.36773,8.37801 10.66762,1.12067 19.79524,2.43716 20.2837,2.92563 0.48838,0.48838 -0.10367,4.99598 -1.31624,10.01676 -2.6887,11.13515 -3.64199,11.23097 -19.8227,1.99175 -6.18646,-3.53244 -14.59827,-7.11817 -18.69298,-7.96816 -12.49753,-2.59431 -29.73115,-8.8928 -45.0835,-16.47686 l -14.60828,-7.21656 -17.47802,8.22542 c -19.05994,8.96992 -24.06117,10.82078 -39.21745,14.51372 -5.53945,1.34968 -12.52907,4.0053 -15.53245,5.90126 -6.01069,3.7944 -20.28684,10.88744 -21.91301,10.88744 -0.56622,0 -1.48249,-1.14853 -2.0361,-2.55231 z"/>
          <rect style="fill:#F5EDE0" width="245.13591" height="1.0798939" x="419.6087" y="370.54297"/>
        </g>
      </g>
    </g>
  </g>
</svg>
